# xmcd
#
# Track frame offsets:
#	150
#	16965
#	40625
#	64780
#	83065
#	101180
#	118767
#	135992
#	156645
#	174865
#	194680
#	220040
#	237925
#	259000
#	287690
#
# Disc length: 4093 seconds
#
# Revision: 0
# Processed by: cddbd v1.5.2PL0 Copyright (c) Steve Scherf et al.
# Submitted via: EasyCDDAExtractor 16.0.0.1
#
DISCID=cf0ffb0f
DTITLE=Natali Lorio - Noire
DYEAR=1999
DGENRE=Funk/Soul
TTITLE0=Oublie Le Mal 
TTITLE1=10 Ans
TTITLE2=Les Notes
TTITLE3=Le Jour
TTITLE4=Qui Se Ressemble
TTITLE5=Vous Les Menteurs
TTITLE6=L'Etoile
TTITLE7=Parents
TTITLE8=Dans Tes Mains
TTITLE9=L'Ecriture
TTITLE10=Rancune
TTITLE11=Complexe
TTITLE12=Oublie Le Mal (Brazilian Mix)
TTITLE13=Oublie Le Mal (Michalon "Deepest" Mix)
TTITLE14=Oublie Le Mal (On The Track Mix)
EXTD=
EXTT0=
EXTT1=
EXTT2=
EXTT3=
EXTT4=
EXTT5=
EXTT6=
EXTT7=
EXTT8=
EXTT9=
EXTT10=
EXTT11=
EXTT12=
EXTT13=
EXTT14=
PLAYORDER=
